<svg width="160" height="28" viewBox="0 0 160 28" fill="none" xmlns="http://www.w3.org/2000/svg">
<path d="M9.30828 27.0808C8.32326 27.0808 7.83077 26.8094 7.83077 26.2667V3.91645H0.738752C0.4925 3.91645 0.307813 3.8301 0.184688 3.65742C0.0615627 3.48473 0 3.20104 0 2.80633V2.21428C0 1.81957 0.0615627 1.53587 0.184688 1.36319C0.307813 1.19051 0.4925 1.10416 0.738752 1.10416H18.0625C18.3333 1.10416 18.518 1.19051 18.6166 1.36319C18.7397 1.53587 18.8012 1.81957 18.8012 2.21428V2.80633C18.8012 3.20104 18.7397 3.48473 18.6166 3.65742C18.518 3.8301 18.3333 3.91645 18.0625 3.91645H11.0813V26.2667C11.0813 26.8094 10.5888 27.0808 9.60378 27.0808H9.30828ZM24.2616 27.0068C23.8676 27.0068 23.5845 26.9204 23.4121 26.7477C23.2397 26.575 23.1535 26.2914 23.1535 25.8966V2.21428C23.1535 1.81957 23.2397 1.53587 23.4121 1.36319C23.5845 1.19051 23.8676 1.10416 24.2616 1.10416H37.1529C37.4237 1.10416 37.6084 1.19051 37.707 1.36319C37.83 1.53587 37.8917 1.81957 37.8917 2.21428V2.80633C37.8917 3.20104 37.83 3.48473 37.707 3.65742C37.6084 3.8301 37.4237 3.91645 37.1529 3.91645H26.404V12.3533H36.0447C36.3156 12.3533 36.5003 12.4396 36.5988 12.6123C36.7219 12.785 36.7835 13.0687 36.7835 13.4634V14.0555C36.7835 14.4502 36.7219 14.7338 36.5988 14.9065C36.5003 15.0792 36.3156 15.1656 36.0447 15.1656H26.404V24.1945H37.1899C37.4606 24.1945 37.6453 24.2808 37.7439 24.4535C37.8669 24.6262 37.9286 24.9099 37.9286 25.3046V25.8966C37.9286 26.2914 37.8669 26.575 37.7439 26.7477C37.6453 26.9204 37.4606 27.0068 37.1899 27.0068H24.2616ZM48.7107 27.2288C47.2332 27.2288 45.8665 27.0561 44.6106 26.7107C43.3548 26.3654 42.4066 25.946 41.7664 25.4526C41.2985 25.1072 41.0646 24.7989 41.0646 24.5275C41.0646 24.2315 41.2246 23.8244 41.5448 23.3064C41.8895 22.7883 42.1602 22.5293 42.3574 22.5293C42.4557 22.5293 42.7143 22.6526 43.1331 22.8993C43.8963 23.3187 44.7089 23.6764 45.571 23.9725C46.4575 24.2685 47.504 24.4165 48.7107 24.4165C50.1387 24.4165 51.2963 24.0218 52.1828 23.2324C53.0937 22.4183 53.5495 21.3575 53.5495 20.0501C53.5495 19.1373 53.3032 18.3849 52.8108 17.7928C52.318 17.1761 51.7149 16.695 51.0008 16.3497C50.3112 15.9797 49.3017 15.5356 47.972 15.0176C46.5436 14.4502 45.4107 13.9321 44.5737 13.4634C43.7363 12.9947 43.0223 12.304 42.4313 11.3912C41.8403 10.4538 41.5448 9.23266 41.5448 7.72783C41.5448 6.39569 41.8773 5.21158 42.5421 4.17547C43.2314 3.13937 44.1918 2.33762 45.4233 1.77023C46.6791 1.17817 48.1197 0.882141 49.745 0.882141C50.582 0.882141 51.518 1.00549 52.5522 1.25218C53.5865 1.4742 54.3865 1.78256 54.9532 2.17727C55.4455 2.4733 55.6919 2.794 55.6919 3.13937C55.6919 3.41073 55.5316 3.80543 55.2117 4.32349C54.9162 4.84154 54.682 5.10056 54.5099 5.10056C54.3865 5.10056 54.2019 5.03888 53.9559 4.91555C53.7342 4.79221 53.5865 4.70585 53.5126 4.65652C52.2811 4.01512 51.0009 3.69442 49.6711 3.69442C48.2427 3.69442 47.0855 4.06446 46.199 4.80453C45.3368 5.54461 44.9061 6.56839 44.9061 7.87584C44.9061 8.7146 45.1152 9.39299 45.5341 9.91105C45.9773 10.4291 46.4697 10.8238 47.0116 11.0952C47.5778 11.3419 48.5504 11.7365 49.9297 12.2793C51.4072 12.8467 52.6135 13.4017 53.5495 13.9444C54.4852 14.4625 55.2731 15.2273 55.9136 16.2387C56.5784 17.2255 56.9109 18.4959 56.9109 20.0501C56.9109 22.2703 56.1721 24.0218 54.6946 25.3046C53.2171 26.5874 51.2225 27.2288 48.7107 27.2288ZM68.2138 27.0808C67.2286 27.0808 66.7363 26.8094 66.7363 26.2667V3.91645H59.6442C59.3979 3.91645 59.2132 3.8301 59.0902 3.65742C58.9668 3.48473 58.9055 3.20104 58.9055 2.80633V2.21428C58.9055 1.81957 58.9668 1.53587 59.0902 1.36319C59.2132 1.19051 59.3979 1.10416 59.6442 1.10416H76.968C77.2387 1.10416 77.4234 1.19051 77.522 1.36319C77.6451 1.53587 77.7067 1.81957 77.7067 2.21428V2.80633C77.7067 3.20104 77.6451 3.48473 77.522 3.65742C77.4234 3.8301 77.2387 3.91645 76.968 3.91645H69.9868V26.2667C69.9868 26.8094 69.494 27.0808 68.5093 27.0808H68.2138ZM88.4859 27.0808C87.5011 27.0808 87.0084 26.8094 87.0084 26.2667V3.91645H79.9163C79.6703 3.91645 79.4856 3.8301 79.3623 3.65742C79.2393 3.48473 79.1776 3.20104 79.1776 2.80633V2.21428C79.1776 1.81957 79.2393 1.53587 79.3623 1.36319C79.4856 1.19051 79.6703 1.10416 79.9163 1.10416H97.2401C97.5112 1.10416 97.6959 1.19051 97.7941 1.36319C97.9175 1.53587 97.9788 1.81957 97.9788 2.21428V2.80633C97.9788 3.20104 97.9175 3.48473 97.7941 3.65742C97.6959 3.8301 97.5112 3.91645 97.2401 3.91645H90.2589V26.2667C90.2589 26.8094 89.7665 27.0808 88.7814 27.0808H88.4859ZM99.2639 27.0808C98.2053 27.0808 97.6756 26.8711 97.6756 26.4517C97.6756 26.3284 97.7125 26.1557 97.7864 25.9336L106.541 1.62222C106.688 1.22751 107.181 1.03016 108.018 1.03016H109.089C109.976 1.03016 110.469 1.22751 110.567 1.62222L119.321 25.9707C119.395 26.1433 119.432 26.3037 119.432 26.4517C119.432 26.8711 118.902 27.0808 117.843 27.0808H117.548C116.686 27.0808 116.194 26.8834 116.07 26.4887L113.891 20.4201H103.032L100.926 26.4887C100.803 26.8834 100.311 27.0808 99.4486 27.0808H99.2639ZM112.894 17.6078L109.015 6.58071C108.892 6.18599 108.745 5.4706 108.572 4.4345H108.498C108.301 5.42128 108.117 6.13667 107.944 6.58071L104.066 17.6078H112.894ZM128.899 27.2288C127.421 27.2288 126.054 27.0561 124.798 26.7107C123.543 26.3654 122.594 25.946 121.954 25.4526C121.486 25.1072 121.252 24.7989 121.252 24.5275C121.252 24.2315 121.412 23.8244 121.733 23.3064C122.077 22.7883 122.348 22.5293 122.545 22.5293C122.644 22.5293 122.902 22.6526 123.321 22.8993C124.084 23.3187 124.897 23.6764 125.759 23.9725C126.645 24.2685 127.692 24.4165 128.899 24.4165C130.327 24.4165 131.484 24.0218 132.371 23.2324C133.282 22.4183 133.737 21.3575 133.737 20.0501C133.737 19.1373 133.491 18.3849 132.999 17.7928C132.506 17.1761 131.903 16.695 131.189 16.3497C130.499 15.9797 129.49 15.5356 128.16 15.0176C126.731 14.4502 125.599 13.9321 124.761 13.4634C123.924 12.9947 123.21 12.304 122.619 11.3912C122.028 10.4538 121.733 9.23266 121.733 7.72783C121.733 6.39569 122.065 5.21158 122.73 4.17547C123.419 3.13937 124.38 2.33762 125.611 1.77023C126.867 1.17817 128.308 0.882141 129.933 0.882141C130.77 0.882141 131.706 1.00549 132.74 1.25218C133.774 1.4742 134.574 1.78256 135.141 2.17727C135.633 2.4733 135.88 2.794 135.88 3.13937C135.88 3.41073 135.719 3.80543 135.4 4.32349C135.104 4.84154 134.87 5.10056 134.698 5.10056C134.574 5.10056 134.39 5.03888 134.144 4.91555C133.922 4.79221 133.774 4.70585 133.7 4.65652C132.469 4.01512 131.189 3.69442 129.859 3.69442C128.431 3.69442 127.273 4.06446 126.387 4.80453C125.525 5.54461 125.094 6.56839 125.094 7.87584C125.094 8.7146 125.303 9.39299 125.722 9.91105C126.165 10.4291 126.658 10.8238 127.199 11.0952C127.766 11.3419 128.738 11.7365 130.117 12.2793C131.595 12.8467 132.801 13.4017 133.737 13.9444C134.673 14.4625 135.461 15.2273 136.101 16.2387C136.766 17.2255 137.099 18.4959 137.099 20.0501C137.099 22.2703 136.36 24.0218 134.882 25.3046C133.405 26.5874 131.41 27.2288 128.899 27.2288ZM143.415 27.0808C142.43 27.0808 141.938 26.8094 141.938 26.2667V1.84424C141.938 1.30152 142.43 1.03016 143.415 1.03016H143.711C144.695 1.03016 145.188 1.30152 145.188 1.84424V13.1674H145.336L154.422 1.54821C154.693 1.20284 155.358 1.03016 156.417 1.03016H156.786C157.205 1.03016 157.525 1.07949 157.747 1.17817C157.968 1.25218 158.079 1.36319 158.079 1.51121C158.079 1.73323 157.956 1.97992 157.71 2.25128L148.475 13.7964L159.668 25.9707C159.889 26.2174 160 26.4147 160 26.5627C160 26.7601 159.877 26.8957 159.631 26.9698C159.384 27.0438 158.966 27.0808 158.375 27.0808H157.931C157.39 27.0808 156.959 27.0561 156.639 27.0068C156.343 26.9574 156.097 26.8217 155.9 26.5997L145.336 14.6845H145.188V26.2667C145.188 26.8094 144.695 27.0808 143.711 27.0808H143.415Z" fill="black" fill-opacity="0.87"/>
</svg>
